<svg width="286" height="517" viewBox="0 0 286 517" fill="none" xmlns="http://www.w3.org/2000/svg">
<path d="M42.1 259C42.1 254.6 43.5 251 46.3 248.2C49.1 245.4 52.7 244 57.1 244C61.5 244 65.1 245.4 67.9 248.2C70.7 251 72.1 254.6 72.1 259C72.1 263.4 70.7 267 67.9 269.8C65.1 272.6 61.5 274 57.1 274C52.7 274 49.1 272.6 46.3 269.8C43.5 267 42.1 263.4 42.1 259ZM10 227L19.4 227C21.9333 227 24.1 227.633 25.9 228.9C27.7 230.167 29.0667 231.8 30 233.8C32 238.267 33.5 242.55 34.5 246.65C35.5 250.75 36 254.867 36 259C36 263.133 35.4833 267.233 34.45 271.3C33.4167 275.367 31.9269 279.631 29.9806 284.092C29.0389 286.179 27.6733 287.852 25.884 289.111C24.0947 290.37 21.9333 291 19.4 291L10 291L10 227ZM16 233L16 285L19.4 285C20.4667 285 21.4833 284.683 22.45 284.05C23.4167 283.417 24.1333 282.633 24.6 281.7C26.6667 277.433 28.0833 273.533 28.85 270C29.6167 266.467 30 262.8 30 259C30 255.2 29.6167 251.5 28.85 247.9C28.0833 244.3 26.6667 240.4 24.6 236.2C24.1333 235.267 23.4167 234.5 22.45 233.9C21.4833 233.3 20.4667 233 19.4 233L16 233ZM48.1 259C48.1 261.6 48.95 263.75 50.65 265.45C52.35 267.15 54.5 268 57.1 268C59.7 268 61.85 267.15 63.55 265.45C65.25 263.75 66.1 261.6 66.1 259C66.1 256.4 65.25 254.25 63.55 252.55C61.85 250.85 59.7 250 57.1 250C54.5 250 52.35 250.85 50.65 252.55C48.95 254.25 48.1 256.4 48.1 259Z" fill="#2499BE"/>
<path d="M244 259C244 263.4 242.6 267 239.8 269.8C237 272.6 233.4 274 229 274C224.6 274 221 272.6 218.2 269.8C215.4 267 214 263.4 214 259C214 254.6 215.4 251 218.2 248.2C221 245.4 224.6 244 229 244C233.4 244 237 245.4 239.8 248.2C242.6 251 244 254.6 244 259ZM276.1 291L266.7 291C264.167 291 262 290.367 260.2 289.1C258.4 287.833 257.033 286.2 256.1 284.2C254.1 279.733 252.6 275.45 251.6 271.35C250.6 267.25 250.1 263.133 250.1 259C250.1 254.867 250.617 250.767 251.65 246.7C252.683 242.633 254.173 238.369 256.119 233.908C257.061 231.821 258.427 230.148 260.216 228.889C262.005 227.63 264.167 227 266.7 227L276.1 227L276.1 291ZM270.1 285L270.1 233L266.7 233C265.633 233 264.617 233.317 263.65 233.95C262.683 234.583 261.967 235.367 261.5 236.3C259.433 240.567 258.017 244.467 257.25 248C256.483 251.533 256.1 255.2 256.1 259C256.1 262.8 256.483 266.5 257.25 270.1C258.017 273.7 259.433 277.6 261.5 281.8C261.967 282.733 262.683 283.5 263.65 284.1C264.617 284.7 265.633 285 266.7 285L270.1 285ZM238 259C238 256.4 237.15 254.25 235.45 252.55C233.75 250.85 231.6 250 229 250C226.4 250 224.25 250.85 222.55 252.55C220.85 254.25 220 256.4 220 259C220 261.6 220.85 263.75 222.55 265.45C224.25 267.15 226.4 268 229 268C231.6 268 233.75 267.15 235.45 265.45C237.15 263.75 238 261.6 238 259Z" fill="#2499BE"/>
<rect x="3.5" y="3.5" width="279" height="510" rx="35.5" stroke="#2499BE" stroke-width="7" stroke-linejoin="round"/>
</svg>
