<svg width="286" height="517" viewBox="0 0 286 517" fill="none" xmlns="http://www.w3.org/2000/svg">
<path d="M143.05 42.1C147.45 42.1 151.05 43.5 153.85 46.3C156.65 49.1 158.05 52.7 158.05 57.1C158.05 61.5 156.65 65.1 153.85 67.9C151.05 70.7 147.45 72.1 143.05 72.1C138.65 72.1 135.05 70.7 132.25 67.9C129.45 65.1 128.05 61.5 128.05 57.1C128.05 52.7 129.45 49.1 132.25 46.3C135.05 43.5 138.65 42.1 143.05 42.1ZM175.05 10L175.05 19.4C175.05 21.9333 174.417 24.1 173.15 25.9C171.883 27.7 170.25 29.0667 168.25 30C163.783 32 159.5 33.5 155.4 34.5C151.3 35.5 147.183 36 143.05 36C138.917 36 134.817 35.4833 130.75 34.45C126.683 33.4167 122.419 31.9269 117.958 29.9806C115.871 29.0389 114.198 27.6733 112.939 25.884C111.68 24.0947 111.05 21.9333 111.05 19.4L111.05 10L175.05 10ZM169.05 16L117.05 16L117.05 19.4C117.05 20.4667 117.367 21.4833 118 22.45C118.633 23.4167 119.417 24.1333 120.35 24.6C124.617 26.6667 128.517 28.0833 132.05 28.85C135.583 29.6167 139.25 30 143.05 30C146.85 30 150.55 29.6167 154.15 28.85C157.75 28.0833 161.65 26.6667 165.85 24.6C166.783 24.1333 167.55 23.4167 168.15 22.45C168.75 21.4833 169.05 20.4667 169.05 19.4L169.05 16ZM143.05 48.1C140.45 48.1 138.3 48.95 136.6 50.65C134.9 52.35 134.05 54.5 134.05 57.1C134.05 59.7 134.9 61.85 136.6 63.55C138.3 65.25 140.45 66.1 143.05 66.1C145.65 66.1 147.8 65.25 149.5 63.55C151.2 61.85 152.05 59.7 152.05 57.1C152.05 54.5 151.2 52.35 149.5 50.65C147.8 48.95 145.65 48.1 143.05 48.1Z" fill="#2499BE"/>
<path d="M143.05 475C138.65 475 135.05 473.6 132.25 470.8C129.45 468 128.05 464.4 128.05 460C128.05 455.6 129.45 452 132.25 449.2C135.05 446.4 138.65 445 143.05 445C147.45 445 151.05 446.4 153.85 449.2C156.65 452 158.05 455.6 158.05 460C158.05 464.4 156.65 468 153.85 470.8C151.05 473.6 147.45 475 143.05 475ZM111.05 507.1L111.05 497.7C111.05 495.167 111.683 493 112.95 491.2C114.217 489.4 115.85 488.033 117.85 487.1C122.317 485.1 126.6 483.6 130.7 482.6C134.8 481.6 138.917 481.1 143.05 481.1C147.183 481.1 151.283 481.617 155.35 482.65C159.417 483.683 163.681 485.173 168.142 487.119C170.229 488.061 171.902 489.427 173.161 491.216C174.42 493.005 175.05 495.167 175.05 497.7L175.05 507.1L111.05 507.1ZM117.05 501.1L169.05 501.1L169.05 497.7C169.05 496.633 168.733 495.617 168.1 494.65C167.467 493.683 166.683 492.967 165.75 492.5C161.483 490.433 157.583 489.017 154.05 488.25C150.517 487.483 146.85 487.1 143.05 487.1C139.25 487.1 135.55 487.483 131.95 488.25C128.35 489.017 124.45 490.433 120.25 492.5C119.317 492.967 118.55 493.683 117.95 494.65C117.35 495.617 117.05 496.633 117.05 497.7L117.05 501.1ZM143.05 469C145.65 469 147.8 468.15 149.5 466.45C151.2 464.75 152.05 462.6 152.05 460C152.05 457.4 151.2 455.25 149.5 453.55C147.8 451.85 145.65 451 143.05 451C140.45 451 138.3 451.85 136.6 453.55C134.9 455.25 134.05 457.4 134.05 460C134.05 462.6 134.9 464.75 136.6 466.45C138.3 468.15 140.45 469 143.05 469Z" fill="#2499BE"/>
<rect x="3.5" y="3.5" width="279" height="510" rx="35.5" stroke="#2499BE" stroke-width="7" stroke-linejoin="round"/>
</svg>
