<svg width="286" height="517" viewBox="0 0 286 517" fill="none" xmlns="http://www.w3.org/2000/svg">
<path d="M42.1 366C42.1 361.6 43.5 358 46.3 355.2C49.1 352.4 52.7 351 57.1 351C61.5 351 65.1 352.4 67.9 355.2C70.7 358 72.1 361.6 72.1 366C72.1 370.4 70.7 374 67.9 376.8C65.1 379.6 61.5 381 57.1 381C52.7 381 49.1 379.6 46.3 376.8C43.5 374 42.1 370.4 42.1 366ZM9.99997 334L19.4 334C21.9333 334 24.1 334.633 25.9 335.9C27.7 337.167 29.0666 338.8 30 340.8C32 345.267 33.5 349.55 34.5 353.65C35.5 357.75 36 361.867 36 366C36 370.133 35.4833 374.233 34.45 378.3C33.4166 382.367 31.9268 386.631 29.9806 391.092C29.0388 393.179 27.6733 394.852 25.884 396.111C24.0946 397.37 21.9333 398 19.4 398L9.99997 398L9.99997 334ZM16 340L16 392L19.4 392C20.4666 392 21.4833 391.683 22.45 391.05C23.4166 390.417 24.1333 389.633 24.6 388.7C26.6666 384.433 28.0833 380.533 28.85 377C29.6166 373.467 30 369.8 30 366C30 362.2 29.6166 358.5 28.85 354.9C28.0833 351.3 26.6666 347.4 24.6 343.2C24.1333 342.267 23.4166 341.5 22.45 340.9C21.4833 340.3 20.4666 340 19.4 340L16 340ZM48.1 366C48.1 368.6 48.95 370.75 50.65 372.45C52.35 374.15 54.5 375 57.1 375C59.7 375 61.85 374.15 63.55 372.45C65.25 370.75 66.1 368.6 66.1 366C66.1 363.4 65.25 361.25 63.55 359.55C61.85 357.85 59.7 357 57.1 357C54.5 357 52.35 357.85 50.65 359.55C48.95 361.25 48.1 363.4 48.1 366Z" fill="#2499BE"/>
<path d="M42.1 151C42.1 146.6 43.5 143 46.3 140.2C49.1 137.4 52.7 136 57.1 136C61.5 136 65.1 137.4 67.9 140.2C70.7 143 72.1 146.6 72.1 151C72.1 155.4 70.7 159 67.9 161.8C65.1 164.6 61.5 166 57.1 166C52.7 166 49.1 164.6 46.3 161.8C43.5 159 42.1 155.4 42.1 151ZM9.99997 119L19.4 119C21.9333 119 24.1 119.633 25.9 120.9C27.7 122.167 29.0666 123.8 30 125.8C32 130.267 33.5 134.55 34.5 138.65C35.5 142.75 36 146.867 36 151C36 155.133 35.4833 159.233 34.45 163.3C33.4166 167.367 31.9268 171.631 29.9806 176.092C29.0388 178.179 27.6733 179.852 25.884 181.111C24.0946 182.37 21.9333 183 19.4 183L9.99997 183L9.99997 119ZM16 125L16 177L19.4 177C20.4666 177 21.4833 176.683 22.45 176.05C23.4166 175.417 24.1333 174.633 24.6 173.7C26.6666 169.433 28.0833 165.533 28.85 162C29.6166 158.467 30 154.8 30 151C30 147.2 29.6166 143.5 28.85 139.9C28.0833 136.3 26.6666 132.4 24.6 128.2C24.1333 127.267 23.4166 126.5 22.45 125.9C21.4833 125.3 20.4666 125 19.4 125L16 125ZM48.1 151C48.1 153.6 48.95 155.75 50.65 157.45C52.35 159.15 54.5 160 57.1 160C59.7 160 61.85 159.15 63.55 157.45C65.25 155.75 66.1 153.6 66.1 151C66.1 148.4 65.25 146.25 63.55 144.55C61.85 142.85 59.7 142 57.1 142C54.5 142 52.35 142.85 50.65 144.55C48.95 146.25 48.1 148.4 48.1 151Z" fill="#2499BE"/>
<path d="M244 259C244 263.4 242.6 267 239.8 269.8C237 272.6 233.4 274 229 274C224.6 274 221 272.6 218.2 269.8C215.4 267 214 263.4 214 259C214 254.6 215.4 251 218.2 248.2C221 245.4 224.6 244 229 244C233.4 244 237 245.4 239.8 248.2C242.6 251 244 254.6 244 259ZM276.1 291L266.7 291C264.167 291 262 290.367 260.2 289.1C258.4 287.833 257.033 286.2 256.1 284.2C254.1 279.733 252.6 275.45 251.6 271.35C250.6 267.25 250.1 263.133 250.1 259C250.1 254.867 250.617 250.767 251.65 246.7C252.683 242.633 254.173 238.369 256.119 233.908C257.061 231.821 258.427 230.148 260.216 228.889C262.005 227.63 264.167 227 266.7 227L276.1 227L276.1 291ZM270.1 285L270.1 233L266.7 233C265.633 233 264.617 233.317 263.65 233.95C262.683 234.583 261.967 235.367 261.5 236.3C259.433 240.567 258.017 244.467 257.25 248C256.483 251.533 256.1 255.2 256.1 259C256.1 262.8 256.483 266.5 257.25 270.1C258.017 273.7 259.433 277.6 261.5 281.8C261.967 282.733 262.683 283.5 263.65 284.1C264.617 284.7 265.633 285 266.7 285L270.1 285ZM238 259C238 256.4 237.15 254.25 235.45 252.55C233.75 250.85 231.6 250 229 250C226.4 250 224.25 250.85 222.55 252.55C220.85 254.25 220 256.4 220 259C220 261.6 220.85 263.75 222.55 265.45C224.25 267.15 226.4 268 229 268C231.6 268 233.75 267.15 235.45 265.45C237.15 263.75 238 261.6 238 259Z" fill="#2499BE"/>
<rect x="3.5" y="3.5" width="279" height="510" rx="35.5" stroke="#2499BE" stroke-width="7" stroke-linejoin="round"/>
</svg>
