<svg width="286" height="517" viewBox="0 0 286 517" fill="none" xmlns="http://www.w3.org/2000/svg">
<path d="M143 475C138.6 475 135 473.6 132.2 470.8C129.4 468 128 464.4 128 460C128 455.6 129.4 452 132.2 449.2C135 446.4 138.6 445 143 445C147.4 445 151 446.4 153.8 449.2C156.6 452 158 455.6 158 460C158 464.4 156.6 468 153.8 470.8C151 473.6 147.4 475 143 475ZM111 507.1V497.7C111 495.167 111.633 493 112.9 491.2C114.167 489.4 115.8 488.033 117.8 487.1C122.267 485.1 126.55 483.6 130.65 482.6C134.75 481.6 138.867 481.1 143 481.1C147.133 481.1 151.233 481.617 155.3 482.65C159.367 483.683 163.631 485.173 168.092 487.119C170.179 488.061 171.852 489.427 173.111 491.216C174.37 493.005 175 495.167 175 497.7V507.1H111ZM117 501.1H169V497.7C169 496.633 168.683 495.617 168.05 494.65C167.417 493.683 166.633 492.967 165.7 492.5C161.433 490.433 157.533 489.017 154 488.25C150.467 487.483 146.8 487.1 143 487.1C139.2 487.1 135.5 487.483 131.9 488.25C128.3 489.017 124.4 490.433 120.2 492.5C119.267 492.967 118.5 493.683 117.9 494.65C117.3 495.617 117 496.633 117 497.7V501.1ZM143 469C145.6 469 147.75 468.15 149.45 466.45C151.15 464.75 152 462.6 152 460C152 457.4 151.15 455.25 149.45 453.55C147.75 451.85 145.6 451 143 451C140.4 451 138.25 451.85 136.55 453.55C134.85 455.25 134 457.4 134 460C134 462.6 134.85 464.75 136.55 466.45C138.25 468.15 140.4 469 143 469Z" fill="#2499BE"/>
<path d="M143 42.1C147.4 42.1 151 43.5 153.8 46.3C156.6 49.1 158 52.7 158 57.1C158 61.5 156.6 65.1 153.8 67.9C151 70.7 147.4 72.1 143 72.1C138.6 72.1 135 70.7 132.2 67.9C129.4 65.1 128 61.5 128 57.1C128 52.7 129.4 49.1 132.2 46.3C135 43.5 138.6 42.1 143 42.1ZM175 10L175 19.4C175 21.9333 174.367 24.1 173.1 25.9C171.833 27.7 170.2 29.0667 168.2 30C163.733 32 159.45 33.5 155.35 34.5C151.25 35.5 147.133 36 143 36C138.867 36 134.767 35.4833 130.7 34.45C126.633 33.4167 122.369 31.9269 117.908 29.9806C115.821 29.0389 114.148 27.6733 112.889 25.884C111.63 24.0947 111 21.9333 111 19.4L111 10L175 10ZM169 16L117 16L117 19.4C117 20.4667 117.317 21.4833 117.95 22.45C118.583 23.4167 119.367 24.1333 120.3 24.6C124.567 26.6667 128.467 28.0833 132 28.85C135.533 29.6167 139.2 30 143 30C146.8 30 150.5 29.6167 154.1 28.85C157.7 28.0833 161.6 26.6667 165.8 24.6C166.733 24.1333 167.5 23.4167 168.1 22.45C168.7 21.4833 169 20.4667 169 19.4L169 16ZM143 48.1C140.4 48.1 138.25 48.95 136.55 50.65C134.85 52.35 134 54.5 134 57.1C134 59.7 134.85 61.85 136.55 63.55C138.25 65.25 140.4 66.1 143 66.1C145.6 66.1 147.75 65.25 149.45 63.55C151.15 61.85 152 59.7 152 57.1C152 54.5 151.15 52.35 149.45 50.65C147.75 48.95 145.6 48.1 143 48.1Z" fill="#2499BE"/>
<path d="M42.1001 259C42.1001 254.6 43.5001 251 46.3001 248.2C49.1001 245.4 52.7001 244 57.1001 244C61.5001 244 65.1001 245.4 67.9001 248.2C70.7001 251 72.1001 254.6 72.1001 259C72.1001 263.4 70.7001 267 67.9001 269.8C65.1001 272.6 61.5001 274 57.1001 274C52.7001 274 49.1001 272.6 46.3001 269.8C43.5001 267 42.1001 263.4 42.1001 259ZM10.0001 227L19.4001 227C21.9334 227 24.1001 227.633 25.9001 228.9C27.7001 230.167 29.0668 231.8 30.0001 233.8C32.0001 238.267 33.5001 242.55 34.5001 246.65C35.5001 250.75 36.0001 254.867 36.0001 259C36.0001 263.133 35.4834 267.233 34.4501 271.3C33.4168 275.367 31.927 279.631 29.9807 284.092C29.039 286.179 27.6734 287.852 25.8841 289.111C24.0948 290.37 21.9334 291 19.4001 291L10.0001 291L10.0001 227ZM16.0001 233L16.0001 285L19.4001 285C20.4668 285 21.4834 284.683 22.4501 284.05C23.4168 283.417 24.1334 282.633 24.6001 281.7C26.6668 277.433 28.0834 273.533 28.8501 270C29.6168 266.467 30.0001 262.8 30.0001 259C30.0001 255.2 29.6168 251.5 28.8501 247.9C28.0834 244.3 26.6668 240.4 24.6001 236.2C24.1334 235.267 23.4168 234.5 22.4501 233.9C21.4834 233.3 20.4668 233 19.4001 233L16.0001 233ZM48.1001 259C48.1001 261.6 48.9501 263.75 50.6501 265.45C52.3501 267.15 54.5001 268 57.1001 268C59.7001 268 61.8501 267.15 63.5501 265.45C65.2501 263.75 66.1001 261.6 66.1001 259C66.1001 256.4 65.2501 254.25 63.5501 252.55C61.8501 250.85 59.7001 250 57.1001 250C54.5001 250 52.3501 250.85 50.6501 252.55C48.9501 254.25 48.1001 256.4 48.1001 259Z" fill="#2499BE"/>
<path d="M244 259C244 263.4 242.6 267 239.8 269.8C237 272.6 233.4 274 229 274C224.6 274 221 272.6 218.2 269.8C215.4 267 214 263.4 214 259C214 254.6 215.4 251 218.2 248.2C221 245.4 224.6 244 229 244C233.4 244 237 245.4 239.8 248.2C242.6 251 244 254.6 244 259ZM276.1 291L266.7 291C264.167 291 262 290.367 260.2 289.1C258.4 287.833 257.033 286.2 256.1 284.2C254.1 279.733 252.6 275.45 251.6 271.35C250.6 267.25 250.1 263.133 250.1 259C250.1 254.867 250.617 250.767 251.65 246.7C252.683 242.633 254.173 238.369 256.119 233.908C257.061 231.821 258.427 230.148 260.216 228.889C262.005 227.63 264.167 227 266.7 227L276.1 227L276.1 291ZM270.1 285L270.1 233L266.7 233C265.633 233 264.617 233.317 263.65 233.95C262.683 234.583 261.967 235.367 261.5 236.3C259.433 240.567 258.017 244.467 257.25 248C256.483 251.533 256.1 255.2 256.1 259C256.1 262.8 256.483 266.5 257.25 270.1C258.017 273.7 259.433 277.6 261.5 281.8C261.967 282.733 262.683 283.5 263.65 284.1C264.617 284.7 265.633 285 266.7 285L270.1 285ZM238 259C238 256.4 237.15 254.25 235.45 252.55C233.75 250.85 231.6 250 229 250C226.4 250 224.25 250.85 222.55 252.55C220.85 254.25 220 256.4 220 259C220 261.6 220.85 263.75 222.55 265.45C224.25 267.15 226.4 268 229 268C231.6 268 233.75 267.15 235.45 265.45C237.15 263.75 238 261.6 238 259Z" fill="#2499BE"/>
<rect x="3.5" y="3.5" width="279" height="510" rx="35.5" stroke="#2499BE" stroke-width="7" stroke-linejoin="round"/>
</svg>
