<svg width="286" height="517" viewBox="0 0 286 517" fill="none" xmlns="http://www.w3.org/2000/svg">
<path d="M42.1001 366C42.1001 361.6 43.5001 358 46.3001 355.2C49.1001 352.4 52.7001 351 57.1001 351C61.5001 351 65.1001 352.4 67.9001 355.2C70.7001 358 72.1001 361.6 72.1001 366C72.1001 370.4 70.7001 374 67.9001 376.8C65.1001 379.6 61.5001 381 57.1001 381C52.7001 381 49.1001 379.6 46.3001 376.8C43.5001 374 42.1001 370.4 42.1001 366ZM10.0001 334L19.4001 334C21.9334 334 24.1001 334.633 25.9001 335.9C27.7001 337.167 29.0668 338.8 30.0001 340.8C32.0001 345.267 33.5001 349.55 34.5001 353.65C35.5001 357.75 36.0001 361.867 36.0001 366C36.0001 370.133 35.4834 374.233 34.4501 378.3C33.4168 382.367 31.927 386.631 29.9807 391.092C29.039 393.179 27.6734 394.852 25.8841 396.111C24.0948 397.37 21.9334 398 19.4001 398L10.0001 398L10.0001 334ZM16.0001 340L16.0001 392L19.4001 392C20.4668 392 21.4834 391.683 22.4501 391.05C23.4168 390.417 24.1334 389.633 24.6001 388.7C26.6668 384.433 28.0834 380.533 28.8501 377C29.6168 373.467 30.0001 369.8 30.0001 366C30.0001 362.2 29.6168 358.5 28.8501 354.9C28.0834 351.3 26.6668 347.4 24.6001 343.2C24.1334 342.267 23.4168 341.5 22.4501 340.9C21.4834 340.3 20.4668 340 19.4001 340L16.0001 340ZM48.1001 366C48.1001 368.6 48.9501 370.75 50.6501 372.45C52.3501 374.15 54.5001 375 57.1001 375C59.7001 375 61.8501 374.15 63.5501 372.45C65.2501 370.75 66.1001 368.6 66.1001 366C66.1001 363.4 65.2501 361.25 63.5501 359.55C61.8501 357.85 59.7001 357 57.1001 357C54.5001 357 52.3501 357.85 50.6501 359.55C48.9501 361.25 48.1001 363.4 48.1001 366Z" fill="#2499BE"/>
<path d="M42.1001 151C42.1001 146.6 43.5001 143 46.3001 140.2C49.1001 137.4 52.7001 136 57.1001 136C61.5001 136 65.1001 137.4 67.9001 140.2C70.7001 143 72.1001 146.6 72.1001 151C72.1001 155.4 70.7001 159 67.9001 161.8C65.1001 164.6 61.5001 166 57.1001 166C52.7001 166 49.1001 164.6 46.3001 161.8C43.5001 159 42.1001 155.4 42.1001 151ZM10.0001 119L19.4001 119C21.9334 119 24.1001 119.633 25.9001 120.9C27.7001 122.167 29.0668 123.8 30.0001 125.8C32.0001 130.267 33.5001 134.55 34.5001 138.65C35.5001 142.75 36.0001 146.867 36.0001 151C36.0001 155.133 35.4834 159.233 34.4501 163.3C33.4168 167.367 31.927 171.631 29.9807 176.092C29.039 178.179 27.6734 179.852 25.8841 181.111C24.0948 182.37 21.9334 183 19.4001 183L10.0001 183L10.0001 119ZM16.0001 125L16.0001 177L19.4001 177C20.4668 177 21.4834 176.683 22.4501 176.05C23.4168 175.417 24.1334 174.633 24.6001 173.7C26.6668 169.433 28.0834 165.533 28.8501 162C29.6168 158.467 30.0001 154.8 30.0001 151C30.0001 147.2 29.6168 143.5 28.8501 139.9C28.0834 136.3 26.6668 132.4 24.6001 128.2C24.1334 127.267 23.4168 126.5 22.4501 125.9C21.4834 125.3 20.4668 125 19.4001 125L16.0001 125ZM48.1001 151C48.1001 153.6 48.9501 155.75 50.6501 157.45C52.3501 159.15 54.5001 160 57.1001 160C59.7001 160 61.8501 159.15 63.5501 157.45C65.2501 155.75 66.1001 153.6 66.1001 151C66.1001 148.4 65.2501 146.25 63.5501 144.55C61.8501 142.85 59.7001 142 57.1001 142C54.5001 142 52.3501 142.85 50.6501 144.55C48.9501 146.25 48.1001 148.4 48.1001 151Z" fill="#2499BE"/>
<path d="M244 151C244 155.4 242.6 159 239.8 161.8C237 164.6 233.4 166 229 166C224.6 166 221 164.6 218.2 161.8C215.4 159 214 155.4 214 151C214 146.6 215.4 143 218.2 140.2C221 137.4 224.6 136 229 136C233.4 136 237 137.4 239.8 140.2C242.6 143 244 146.6 244 151ZM276.1 183L266.7 183C264.167 183 262 182.367 260.2 181.1C258.4 179.833 257.033 178.2 256.1 176.2C254.1 171.733 252.6 167.45 251.6 163.35C250.6 159.25 250.1 155.133 250.1 151C250.1 146.867 250.617 142.767 251.65 138.7C252.683 134.633 254.173 130.369 256.119 125.908C257.061 123.821 258.427 122.148 260.216 120.889C262.005 119.63 264.167 119 266.7 119L276.1 119L276.1 183ZM270.1 177L270.1 125L266.7 125C265.633 125 264.617 125.317 263.65 125.95C262.683 126.583 261.967 127.367 261.5 128.3C259.433 132.567 258.017 136.467 257.25 140C256.483 143.533 256.1 147.2 256.1 151C256.1 154.8 256.483 158.5 257.25 162.1C258.017 165.7 259.433 169.6 261.5 173.8C261.967 174.733 262.683 175.5 263.65 176.1C264.617 176.7 265.633 177 266.7 177L270.1 177ZM238 151C238 148.4 237.15 146.25 235.45 144.55C233.75 142.85 231.6 142 229 142C226.4 142 224.25 142.85 222.55 144.55C220.85 146.25 220 148.4 220 151C220 153.6 220.85 155.75 222.55 157.45C224.25 159.15 226.4 160 229 160C231.6 160 233.75 159.15 235.45 157.45C237.15 155.75 238 153.6 238 151Z" fill="#2499BE"/>
<path d="M244 366C244 370.4 242.6 374 239.8 376.8C237 379.6 233.4 381 229 381C224.6 381 221 379.6 218.2 376.8C215.4 374 214 370.4 214 366C214 361.6 215.4 358 218.2 355.2C221 352.4 224.6 351 229 351C233.4 351 237 352.4 239.8 355.2C242.6 358 244 361.6 244 366ZM276.1 398L266.7 398C264.167 398 262 397.367 260.2 396.1C258.4 394.833 257.033 393.2 256.1 391.2C254.1 386.733 252.6 382.45 251.6 378.35C250.6 374.25 250.1 370.133 250.1 366C250.1 361.867 250.617 357.767 251.65 353.7C252.683 349.633 254.173 345.369 256.119 340.908C257.061 338.821 258.427 337.148 260.216 335.889C262.005 334.63 264.167 334 266.7 334L276.1 334L276.1 398ZM270.1 392L270.1 340L266.7 340C265.633 340 264.617 340.317 263.65 340.95C262.683 341.583 261.967 342.367 261.5 343.3C259.433 347.567 258.017 351.467 257.25 355C256.483 358.533 256.1 362.2 256.1 366C256.1 369.8 256.483 373.5 257.25 377.1C258.017 380.7 259.433 384.6 261.5 388.8C261.967 389.733 262.683 390.5 263.65 391.1C264.617 391.7 265.633 392 266.7 392L270.1 392ZM238 366C238 363.4 237.15 361.25 235.45 359.55C233.75 357.85 231.6 357 229 357C226.4 357 224.25 357.85 222.55 359.55C220.85 361.25 220 363.4 220 366C220 368.6 220.85 370.75 222.55 372.45C224.25 374.15 226.4 375 229 375C231.6 375 233.75 374.15 235.45 372.45C237.15 370.75 238 368.6 238 366Z" fill="#2499BE"/>
<rect x="3.5" y="3.5" width="279" height="510" rx="35.5" stroke="#2499BE" stroke-width="7" stroke-linejoin="round"/>
</svg>
