<svg width="286" height="517" viewBox="0 0 286 517" fill="none" xmlns="http://www.w3.org/2000/svg">
<path d="M42.1001 398C42.1001 393.6 43.5001 390 46.3001 387.2C49.1001 384.4 52.7001 383 57.1001 383C61.5001 383 65.1001 384.4 67.9001 387.2C70.7001 390 72.1001 393.6 72.1001 398C72.1001 402.4 70.7001 406 67.9001 408.8C65.1001 411.6 61.5001 413 57.1001 413C52.7001 413 49.1001 411.6 46.3001 408.8C43.5001 406 42.1001 402.4 42.1001 398ZM10.0001 366L19.4001 366C21.9334 366 24.1001 366.633 25.9001 367.9C27.7001 369.167 29.0668 370.8 30.0001 372.8C32.0001 377.267 33.5001 381.55 34.5001 385.65C35.5001 389.75 36.0001 393.867 36.0001 398C36.0001 402.133 35.4834 406.233 34.4501 410.3C33.4168 414.367 31.927 418.631 29.9807 423.092C29.039 425.179 27.6734 426.852 25.8841 428.111C24.0948 429.37 21.9334 430 19.4001 430L10.0001 430L10.0001 366ZM16.0001 372L16.0001 424L19.4001 424C20.4668 424 21.4834 423.683 22.4501 423.05C23.4168 422.417 24.1334 421.633 24.6001 420.7C26.6668 416.433 28.0834 412.533 28.8501 409C29.6168 405.467 30.0001 401.8 30.0001 398C30.0001 394.2 29.6168 390.5 28.8501 386.9C28.0834 383.3 26.6668 379.4 24.6001 375.2C24.1334 374.267 23.4168 373.5 22.4501 372.9C21.4834 372.3 20.4668 372 19.4001 372L16.0001 372ZM48.1001 398C48.1001 400.6 48.9501 402.75 50.6501 404.45C52.3501 406.15 54.5001 407 57.1001 407C59.7001 407 61.8501 406.15 63.5501 404.45C65.2501 402.75 66.1001 400.6 66.1001 398C66.1001 395.4 65.2501 393.25 63.5501 391.55C61.8501 389.85 59.7001 389 57.1001 389C54.5001 389 52.3501 389.85 50.6501 391.55C48.9501 393.25 48.1001 395.4 48.1001 398Z" fill="#2499BE"/>
<path d="M42.1001 119C42.1001 114.6 43.5001 111 46.3001 108.2C49.1001 105.4 52.7001 104 57.1001 104C61.5001 104 65.1001 105.4 67.9001 108.2C70.7001 111 72.1001 114.6 72.1001 119C72.1001 123.4 70.7001 127 67.9001 129.8C65.1001 132.6 61.5001 134 57.1001 134C52.7001 134 49.1001 132.6 46.3001 129.8C43.5001 127 42.1001 123.4 42.1001 119ZM10.0001 87L19.4001 87C21.9334 87 24.1001 87.6333 25.9001 88.9C27.7001 90.1667 29.0668 91.8 30.0001 93.8C32.0001 98.2667 33.5001 102.55 34.5001 106.65C35.5001 110.75 36.0001 114.867 36.0001 119C36.0001 123.133 35.4834 127.233 34.4501 131.3C33.4168 135.367 31.927 139.631 29.9807 144.092C29.039 146.179 27.6734 147.852 25.8841 149.111C24.0948 150.37 21.9334 151 19.4001 151L10.0001 151L10.0001 87ZM16.0001 93L16.0001 145L19.4001 145C20.4668 145 21.4834 144.683 22.4501 144.05C23.4168 143.417 24.1334 142.633 24.6001 141.7C26.6668 137.433 28.0834 133.533 28.8501 130C29.6168 126.467 30.0001 122.8 30.0001 119C30.0001 115.2 29.6168 111.5 28.8501 107.9C28.0834 104.3 26.6668 100.4 24.6001 96.2C24.1334 95.2667 23.4168 94.5 22.4501 93.9C21.4834 93.3 20.4668 93 19.4001 93L16.0001 93ZM48.1001 119C48.1001 121.6 48.9501 123.75 50.6501 125.45C52.3501 127.15 54.5001 128 57.1001 128C59.7001 128 61.8501 127.15 63.5501 125.45C65.2501 123.75 66.1001 121.6 66.1001 119C66.1001 116.4 65.2501 114.25 63.5501 112.55C61.8501 110.85 59.7001 110 57.1001 110C54.5001 110 52.3501 110.85 50.6501 112.55C48.9501 114.25 48.1001 116.4 48.1001 119Z" fill="#2499BE"/>
<path d="M42.1001 250C42.1001 245.6 43.5001 242 46.3001 239.2C49.1001 236.4 52.7001 235 57.1001 235C61.5001 235 65.1001 236.4 67.9001 239.2C70.7001 242 72.1001 245.6 72.1001 250C72.1001 254.4 70.7001 258 67.9001 260.8C65.1001 263.6 61.5001 265 57.1001 265C52.7001 265 49.1001 263.6 46.3001 260.8C43.5001 258 42.1001 254.4 42.1001 250ZM10.0001 218L19.4001 218C21.9334 218 24.1001 218.633 25.9001 219.9C27.7001 221.167 29.0668 222.8 30.0001 224.8C32.0001 229.267 33.5001 233.55 34.5001 237.65C35.5001 241.75 36.0001 245.867 36.0001 250C36.0001 254.133 35.4834 258.233 34.4501 262.3C33.4168 266.367 31.927 270.631 29.9807 275.092C29.039 277.179 27.6734 278.852 25.8841 280.111C24.0948 281.37 21.9334 282 19.4001 282L10.0001 282L10.0001 218ZM16.0001 224L16.0001 276L19.4001 276C20.4668 276 21.4834 275.683 22.4501 275.05C23.4168 274.417 24.1334 273.633 24.6001 272.7C26.6668 268.433 28.0834 264.533 28.8501 261C29.6168 257.467 30.0001 253.8 30.0001 250C30.0001 246.2 29.6168 242.5 28.8501 238.9C28.0834 235.3 26.6668 231.4 24.6001 227.2C24.1334 226.267 23.4168 225.5 22.4501 224.9C21.4834 224.3 20.4668 224 19.4001 224L16.0001 224ZM48.1001 250C48.1001 252.6 48.9501 254.75 50.6501 256.45C52.3501 258.15 54.5001 259 57.1001 259C59.7001 259 61.8501 258.15 63.5501 256.45C65.2501 254.75 66.1001 252.6 66.1001 250C66.1001 247.4 65.2501 245.25 63.5501 243.55C61.8501 241.85 59.7001 241 57.1001 241C54.5001 241 52.3501 241.85 50.6501 243.55C48.9501 245.25 48.1001 247.4 48.1001 250Z" fill="#2499BE"/>
<path d="M244 151C244 155.4 242.6 159 239.8 161.8C237 164.6 233.4 166 229 166C224.6 166 221 164.6 218.2 161.8C215.4 159 214 155.4 214 151C214 146.6 215.4 143 218.2 140.2C221 137.4 224.6 136 229 136C233.4 136 237 137.4 239.8 140.2C242.6 143 244 146.6 244 151ZM276.1 183L266.7 183C264.167 183 262 182.367 260.2 181.1C258.4 179.833 257.033 178.2 256.1 176.2C254.1 171.733 252.6 167.45 251.6 163.35C250.6 159.25 250.1 155.133 250.1 151C250.1 146.867 250.617 142.767 251.65 138.7C252.683 134.633 254.173 130.369 256.119 125.908C257.061 123.821 258.427 122.148 260.216 120.889C262.005 119.63 264.167 119 266.7 119L276.1 119L276.1 183ZM270.1 177L270.1 125L266.7 125C265.633 125 264.617 125.317 263.65 125.95C262.683 126.583 261.967 127.367 261.5 128.3C259.433 132.567 258.017 136.467 257.25 140C256.483 143.533 256.1 147.2 256.1 151C256.1 154.8 256.483 158.5 257.25 162.1C258.017 165.7 259.433 169.6 261.5 173.8C261.967 174.733 262.683 175.5 263.65 176.1C264.617 176.7 265.633 177 266.7 177L270.1 177ZM238 151C238 148.4 237.15 146.25 235.45 144.55C233.75 142.85 231.6 142 229 142C226.4 142 224.25 142.85 222.55 144.55C220.85 146.25 220 148.4 220 151C220 153.6 220.85 155.75 222.55 157.45C224.25 159.15 226.4 160 229 160C231.6 160 233.75 159.15 235.45 157.45C237.15 155.75 238 153.6 238 151Z" fill="#2499BE"/>
<path d="M244 366C244 370.4 242.6 374 239.8 376.8C237 379.6 233.4 381 229 381C224.6 381 221 379.6 218.2 376.8C215.4 374 214 370.4 214 366C214 361.6 215.4 358 218.2 355.2C221 352.4 224.6 351 229 351C233.4 351 237 352.4 239.8 355.2C242.6 358 244 361.6 244 366ZM276.1 398L266.7 398C264.167 398 262 397.367 260.2 396.1C258.4 394.833 257.033 393.2 256.1 391.2C254.1 386.733 252.6 382.45 251.6 378.35C250.6 374.25 250.1 370.133 250.1 366C250.1 361.867 250.617 357.767 251.65 353.7C252.683 349.633 254.173 345.369 256.119 340.908C257.061 338.821 258.427 337.148 260.216 335.889C262.005 334.63 264.167 334 266.7 334L276.1 334L276.1 398ZM270.1 392L270.1 340L266.7 340C265.633 340 264.617 340.317 263.65 340.95C262.683 341.583 261.967 342.367 261.5 343.3C259.433 347.567 258.017 351.467 257.25 355C256.483 358.533 256.1 362.2 256.1 366C256.1 369.8 256.483 373.5 257.25 377.1C258.017 380.7 259.433 384.6 261.5 388.8C261.967 389.733 262.683 390.5 263.65 391.1C264.617 391.7 265.633 392 266.7 392L270.1 392ZM238 366C238 363.4 237.15 361.25 235.45 359.55C233.75 357.85 231.6 357 229 357C226.4 357 224.25 357.85 222.55 359.55C220.85 361.25 220 363.4 220 366C220 368.6 220.85 370.75 222.55 372.45C224.25 374.15 226.4 375 229 375C231.6 375 233.75 374.15 235.45 372.45C237.15 370.75 238 368.6 238 366Z" fill="#2499BE"/>
<rect x="3.5" y="3.5" width="279" height="510" rx="35.5" stroke="#2499BE" stroke-width="7" stroke-linejoin="round"/>
</svg>
