<svg width="286" height="517" viewBox="0 0 286 517" fill="none" xmlns="http://www.w3.org/2000/svg">
<path d="M42.1001 398C42.1001 393.6 43.5001 390 46.3001 387.2C49.1001 384.4 52.7001 383 57.1001 383C61.5001 383 65.1001 384.4 67.9001 387.2C70.7001 390 72.1001 393.6 72.1001 398C72.1001 402.4 70.7001 406 67.9001 408.8C65.1001 411.6 61.5001 413 57.1001 413C52.7001 413 49.1001 411.6 46.3001 408.8C43.5001 406 42.1001 402.4 42.1001 398ZM10.0001 366L19.4001 366C21.9334 366 24.1001 366.633 25.9001 367.9C27.7001 369.167 29.0668 370.8 30.0001 372.8C32.0001 377.267 33.5001 381.55 34.5001 385.65C35.5001 389.75 36.0001 393.867 36.0001 398C36.0001 402.133 35.4834 406.233 34.4501 410.3C33.4168 414.367 31.927 418.631 29.9807 423.092C29.039 425.179 27.6734 426.852 25.8841 428.111C24.0948 429.37 21.9334 430 19.4001 430L10.0001 430L10.0001 366ZM16.0001 372L16.0001 424L19.4001 424C20.4668 424 21.4834 423.683 22.4501 423.05C23.4168 422.417 24.1334 421.633 24.6001 420.7C26.6668 416.433 28.0834 412.533 28.8501 409C29.6168 405.467 30.0001 401.8 30.0001 398C30.0001 394.2 29.6168 390.5 28.8501 386.9C28.0834 383.3 26.6668 379.4 24.6001 375.2C24.1334 374.267 23.4168 373.5 22.4501 372.9C21.4834 372.3 20.4668 372 19.4001 372L16.0001 372ZM48.1001 398C48.1001 400.6 48.9501 402.75 50.6501 404.45C52.3501 406.15 54.5001 407 57.1001 407C59.7001 407 61.8501 406.15 63.5501 404.45C65.2501 402.75 66.1001 400.6 66.1001 398C66.1001 395.4 65.2501 393.25 63.5501 391.55C61.8501 389.85 59.7001 389 57.1001 389C54.5001 389 52.3501 389.85 50.6501 391.55C48.9501 393.25 48.1001 395.4 48.1001 398Z" fill="#2499BE"/>
<path d="M42.1001 119C42.1001 114.6 43.5001 111 46.3001 108.2C49.1001 105.4 52.7001 104 57.1001 104C61.5001 104 65.1001 105.4 67.9001 108.2C70.7001 111 72.1001 114.6 72.1001 119C72.1001 123.4 70.7001 127 67.9001 129.8C65.1001 132.6 61.5001 134 57.1001 134C52.7001 134 49.1001 132.6 46.3001 129.8C43.5001 127 42.1001 123.4 42.1001 119ZM10.0001 87L19.4001 87C21.9334 87 24.1001 87.6333 25.9001 88.9C27.7001 90.1667 29.0668 91.8 30.0001 93.8C32.0001 98.2667 33.5001 102.55 34.5001 106.65C35.5001 110.75 36.0001 114.867 36.0001 119C36.0001 123.133 35.4834 127.233 34.4501 131.3C33.4168 135.367 31.927 139.631 29.9807 144.092C29.039 146.179 27.6734 147.852 25.8841 149.111C24.0948 150.37 21.9334 151 19.4001 151L10.0001 151L10.0001 87ZM16.0001 93L16.0001 145L19.4001 145C20.4668 145 21.4834 144.683 22.4501 144.05C23.4168 143.417 24.1334 142.633 24.6001 141.7C26.6668 137.433 28.0834 133.533 28.8501 130C29.6168 126.467 30.0001 122.8 30.0001 119C30.0001 115.2 29.6168 111.5 28.8501 107.9C28.0834 104.3 26.6668 100.4 24.6001 96.2C24.1334 95.2667 23.4168 94.5 22.4501 93.9C21.4834 93.3 20.4668 93 19.4001 93L16.0001 93ZM48.1001 119C48.1001 121.6 48.9501 123.75 50.6501 125.45C52.3501 127.15 54.5001 128 57.1001 128C59.7001 128 61.8501 127.15 63.5501 125.45C65.2501 123.75 66.1001 121.6 66.1001 119C66.1001 116.4 65.2501 114.25 63.5501 112.55C61.8501 110.85 59.7001 110 57.1001 110C54.5001 110 52.3501 110.85 50.6501 112.55C48.9501 114.25 48.1001 116.4 48.1001 119Z" fill="#2499BE"/>
<path d="M42.1001 250C42.1001 245.6 43.5001 242 46.3001 239.2C49.1001 236.4 52.7001 235 57.1001 235C61.5001 235 65.1001 236.4 67.9001 239.2C70.7001 242 72.1001 245.6 72.1001 250C72.1001 254.4 70.7001 258 67.9001 260.8C65.1001 263.6 61.5001 265 57.1001 265C52.7001 265 49.1001 263.6 46.3001 260.8C43.5001 258 42.1001 254.4 42.1001 250ZM10.0001 218L19.4001 218C21.9334 218 24.1001 218.633 25.9001 219.9C27.7001 221.167 29.0668 222.8 30.0001 224.8C32.0001 229.267 33.5001 233.55 34.5001 237.65C35.5001 241.75 36.0001 245.867 36.0001 250C36.0001 254.133 35.4834 258.233 34.4501 262.3C33.4168 266.367 31.927 270.631 29.9807 275.092C29.039 277.179 27.6734 278.852 25.8841 280.111C24.0948 281.37 21.9334 282 19.4001 282L10.0001 282L10.0001 218ZM16.0001 224L16.0001 276L19.4001 276C20.4668 276 21.4834 275.683 22.4501 275.05C23.4168 274.417 24.1334 273.633 24.6001 272.7C26.6668 268.433 28.0834 264.533 28.8501 261C29.6168 257.467 30.0001 253.8 30.0001 250C30.0001 246.2 29.6168 242.5 28.8501 238.9C28.0834 235.3 26.6668 231.4 24.6001 227.2C24.1334 226.267 23.4168 225.5 22.4501 224.9C21.4834 224.3 20.4668 224 19.4001 224L16.0001 224ZM48.1001 250C48.1001 252.6 48.9501 254.75 50.6501 256.45C52.3501 258.15 54.5001 259 57.1001 259C59.7001 259 61.8501 258.15 63.5501 256.45C65.2501 254.75 66.1001 252.6 66.1001 250C66.1001 247.4 65.2501 245.25 63.5501 243.55C61.8501 241.85 59.7001 241 57.1001 241C54.5001 241 52.3501 241.85 50.6501 243.55C48.9501 245.25 48.1001 247.4 48.1001 250Z" fill="#2499BE"/>
<path d="M244 119C244 123.4 242.6 127 239.8 129.8C237 132.6 233.4 134 229 134C224.6 134 221 132.6 218.2 129.8C215.4 127 214 123.4 214 119C214 114.6 215.4 111 218.2 108.2C221 105.4 224.6 104 229 104C233.4 104 237 105.4 239.8 108.2C242.6 111 244 114.6 244 119ZM276.1 151L266.7 151C264.167 151 262 150.367 260.2 149.1C258.4 147.833 257.033 146.2 256.1 144.2C254.1 139.733 252.6 135.45 251.6 131.35C250.6 127.25 250.1 123.133 250.1 119C250.1 114.867 250.617 110.767 251.65 106.7C252.683 102.633 254.173 98.3693 256.119 93.9079C257.061 91.8212 258.427 90.1482 260.216 88.8889C262.005 87.6296 264.167 87 266.7 87L276.1 87L276.1 151ZM270.1 145L270.1 93L266.7 93C265.633 93 264.617 93.3167 263.65 93.95C262.683 94.5833 261.967 95.3667 261.5 96.3C259.433 100.567 258.017 104.467 257.25 108C256.483 111.533 256.1 115.2 256.1 119C256.1 122.8 256.483 126.5 257.25 130.1C258.017 133.7 259.433 137.6 261.5 141.8C261.967 142.733 262.683 143.5 263.65 144.1C264.617 144.7 265.633 145 266.7 145L270.1 145ZM238 119C238 116.4 237.15 114.25 235.45 112.55C233.75 110.85 231.6 110 229 110C226.4 110 224.25 110.85 222.55 112.55C220.85 114.25 220 116.4 220 119C220 121.6 220.85 123.75 222.55 125.45C224.25 127.15 226.4 128 229 128C231.6 128 233.75 127.15 235.45 125.45C237.15 123.75 238 121.6 238 119Z" fill="#2499BE"/>
<path d="M244 398C244 402.4 242.6 406 239.8 408.8C237 411.6 233.4 413 229 413C224.6 413 221 411.6 218.2 408.8C215.4 406 214 402.4 214 398C214 393.6 215.4 390 218.2 387.2C221 384.4 224.6 383 229 383C233.4 383 237 384.4 239.8 387.2C242.6 390 244 393.6 244 398ZM276.1 430L266.7 430C264.167 430 262 429.367 260.2 428.1C258.4 426.833 257.033 425.2 256.1 423.2C254.1 418.733 252.6 414.45 251.6 410.35C250.6 406.25 250.1 402.133 250.1 398C250.1 393.867 250.617 389.767 251.65 385.7C252.683 381.633 254.173 377.369 256.119 372.908C257.061 370.821 258.427 369.148 260.216 367.889C262.005 366.63 264.167 366 266.7 366L276.1 366L276.1 430ZM270.1 424L270.1 372L266.7 372C265.633 372 264.617 372.317 263.65 372.95C262.683 373.583 261.967 374.367 261.5 375.3C259.433 379.567 258.017 383.467 257.25 387C256.483 390.533 256.1 394.2 256.1 398C256.1 401.8 256.483 405.5 257.25 409.1C258.017 412.7 259.433 416.6 261.5 420.8C261.967 421.733 262.683 422.5 263.65 423.1C264.617 423.7 265.633 424 266.7 424L270.1 424ZM238 398C238 395.4 237.15 393.25 235.45 391.55C233.75 389.85 231.6 389 229 389C226.4 389 224.25 389.85 222.55 391.55C220.85 393.25 220 395.4 220 398C220 400.6 220.85 402.75 222.55 404.45C224.25 406.15 226.4 407 229 407C231.6 407 233.75 406.15 235.45 404.45C237.15 402.75 238 400.6 238 398Z" fill="#2499BE"/>
<path d="M244 267C244 271.4 242.6 275 239.8 277.8C237 280.6 233.4 282 229 282C224.6 282 221 280.6 218.2 277.8C215.4 275 214 271.4 214 267C214 262.6 215.4 259 218.2 256.2C221 253.4 224.6 252 229 252C233.4 252 237 253.4 239.8 256.2C242.6 259 244 262.6 244 267ZM276.1 299L266.7 299C264.167 299 262 298.367 260.2 297.1C258.4 295.833 257.033 294.2 256.1 292.2C254.1 287.733 252.6 283.45 251.6 279.35C250.6 275.25 250.1 271.133 250.1 267C250.1 262.867 250.617 258.767 251.65 254.7C252.683 250.633 254.173 246.369 256.119 241.908C257.061 239.821 258.427 238.148 260.216 236.889C262.005 235.63 264.167 235 266.7 235L276.1 235L276.1 299ZM270.1 293L270.1 241L266.7 241C265.633 241 264.617 241.317 263.65 241.95C262.683 242.583 261.967 243.367 261.5 244.3C259.433 248.567 258.017 252.467 257.25 256C256.483 259.533 256.1 263.2 256.1 267C256.1 270.8 256.483 274.5 257.25 278.1C258.017 281.7 259.433 285.6 261.5 289.8C261.967 290.733 262.683 291.5 263.65 292.1C264.617 292.7 265.633 293 266.7 293L270.1 293ZM238 267C238 264.4 237.15 262.25 235.45 260.55C233.75 258.85 231.6 258 229 258C226.4 258 224.25 258.85 222.55 260.55C220.85 262.25 220 264.4 220 267C220 269.6 220.85 271.75 222.55 273.45C224.25 275.15 226.4 276 229 276C231.6 276 233.75 275.15 235.45 273.45C237.15 271.75 238 269.6 238 267Z" fill="#2499BE"/>
<rect x="3.5" y="3.5" width="279" height="510" rx="35.5" stroke="#2499BE" stroke-width="7" stroke-linejoin="round"/>
</svg>
